# xmcd CD database file
#
# Track frame offsets:
#	150
#	17585
#	42714
#	69184
#	96250
#	132584
#	154916
#	179653
#	203392
#	225476
#	237211
#	264099
#	276099
#	301589
#
# Disc length: 4419 seconds
#
# Revision: 0
# Processed by: cddbd v1.5.2PL0 Copyright (c) Steve Scherf et al.
# Submitted via: CDex 1.51
#
DISCID=b311410e
DTITLE=Various Artist - Playground Vol. 009 - Swell Session and Ste Van B
DYEAR=2004
DGENRE=Nu Jazz
TTITLE0=Solid Groove - Now we got 2 bump
TTITLE1=Moonstarr and John Kong - Yesterday's Beginning (feat. Coolhandluke)
TTITLE2=Hajime Yoshisawa - Endless Bow (Jimpster Remix)
TTITLE3=RSL - Wesley Music
TTITLE4=Albanek - Walk away (Swell Session's Boogie Voyage Remix)
TTITLE5=Dom um Romau - Lake of Perseverance (Opaque Remix)
TTITLE6=N.O.H.A. - Balkan Hot Step
TTITLE7=Soular Sound - When there's no Reason
TTITLE8=Loose Ensemble - Your Help
TTITLE9=The Flaws - Freek (feat. MC Chick-a-Boo)
TTITLE10=Bobby Hughes Combination - Kerma Elastica (Nicola Conte Remix)
TTITLE11=Electrosacher - Evenings (Zeljko Karleta Cosmic Remix)
TTITLE12=Cleveland Watkiss - Torch of Freedom
TTITLE13=London Elektricity - Born to Synthesise
EXTD=YEAR: 2004
EXTT0=
EXTT1=
EXTT2=
EXTT3=
EXTT4=
EXTT5=
EXTT6=
EXTT7=
EXTT8=
EXTT9=
EXTT10=
EXTT11=
EXTT12=
EXTT13=
PLAYORDER=
